<mxfile host="app.diagrams.net" modified="2022-07-05T10:06:00.522Z" agent="5.0 (X11; Linux x86_64) AppleWebKit/537.36 (KHTML, like Gecko) Chrome/102.0.0.0 Safari/537.36" etag="YY9Zfr5YOBCW2LyhOusJ" version="20.0.3" type="github">
  <diagram id="Svt4UsTSu-rcn7rZu2xF" name="Page-1">
    <mxGraphModel dx="1578" dy="896" grid="1" gridSize="10" guides="1" tooltips="1" connect="1" arrows="1" fold="1" page="1" pageScale="1" pageWidth="2000" pageHeight="2000" math="0" shadow="0">
      <root>
        <mxCell id="0" />
        <mxCell id="1" parent="0" />
        <mxCell id="L0tOpF2VsNZqgWpiOgAN-1" value="user_profile" style="shape=table;startSize=30;container=1;collapsible=1;childLayout=tableLayout;fixedRows=2;rowLines=0;fontStyle=1;align=center;resizeLast=1;fillColor=#f5f5f5;strokeColor=#666666;rounded=1;gradientColor=#b3b3b3;" parent="1" vertex="1">
          <mxGeometry x="590" y="150" width="240" height="352" as="geometry" />
        </mxCell>
        <mxCell id="L0tOpF2VsNZqgWpiOgAN-2" value="" style="shape=tableRow;horizontal=0;startSize=0;swimlaneHead=0;swimlaneBody=0;fillColor=none;collapsible=0;dropTarget=0;points=[[0,0.5],[1,0.5]];portConstraint=eastwest;top=0;left=0;right=0;bottom=1;" parent="L0tOpF2VsNZqgWpiOgAN-1" vertex="1">
          <mxGeometry y="30" width="240" height="33" as="geometry" />
        </mxCell>
        <mxCell id="L0tOpF2VsNZqgWpiOgAN-3" value="PK" style="shape=partialRectangle;connectable=0;fillColor=none;top=0;left=0;bottom=0;right=0;fontStyle=1;overflow=hidden;" parent="L0tOpF2VsNZqgWpiOgAN-2" vertex="1">
          <mxGeometry width="30" height="33" as="geometry">
            <mxRectangle width="30" height="33" as="alternateBounds" />
          </mxGeometry>
        </mxCell>
        <mxCell id="L0tOpF2VsNZqgWpiOgAN-4" value="id" style="shape=partialRectangle;connectable=0;fillColor=none;top=0;left=0;bottom=0;right=0;align=left;spacingLeft=6;fontStyle=5;overflow=hidden;" parent="L0tOpF2VsNZqgWpiOgAN-2" vertex="1">
          <mxGeometry x="30" width="120" height="33" as="geometry">
            <mxRectangle width="120" height="33" as="alternateBounds" />
          </mxGeometry>
        </mxCell>
        <mxCell id="L0tOpF2VsNZqgWpiOgAN-15" value="INT" style="shape=partialRectangle;connectable=0;fillColor=none;top=0;left=0;bottom=0;right=0;align=left;spacingLeft=6;fontStyle=5;overflow=hidden;" parent="L0tOpF2VsNZqgWpiOgAN-2" vertex="1">
          <mxGeometry x="150" width="90" height="33" as="geometry">
            <mxRectangle width="90" height="33" as="alternateBounds" />
          </mxGeometry>
        </mxCell>
        <mxCell id="L0tOpF2VsNZqgWpiOgAN-5" value="" style="shape=tableRow;horizontal=0;startSize=0;swimlaneHead=0;swimlaneBody=0;fillColor=none;collapsible=0;dropTarget=0;points=[[0,0.5],[1,0.5]];portConstraint=eastwest;top=0;left=0;right=0;bottom=0;" parent="L0tOpF2VsNZqgWpiOgAN-1" vertex="1">
          <mxGeometry y="63" width="240" height="32" as="geometry" />
        </mxCell>
        <mxCell id="L0tOpF2VsNZqgWpiOgAN-6" value="" style="shape=partialRectangle;connectable=0;fillColor=none;top=0;left=0;bottom=0;right=0;editable=1;overflow=hidden;" parent="L0tOpF2VsNZqgWpiOgAN-5" vertex="1">
          <mxGeometry width="30" height="32" as="geometry">
            <mxRectangle width="30" height="32" as="alternateBounds" />
          </mxGeometry>
        </mxCell>
        <mxCell id="L0tOpF2VsNZqgWpiOgAN-7" value="name" style="shape=partialRectangle;connectable=0;fillColor=none;top=0;left=0;bottom=0;right=0;align=left;spacingLeft=6;overflow=hidden;" parent="L0tOpF2VsNZqgWpiOgAN-5" vertex="1">
          <mxGeometry x="30" width="120" height="32" as="geometry">
            <mxRectangle width="120" height="32" as="alternateBounds" />
          </mxGeometry>
        </mxCell>
        <mxCell id="L0tOpF2VsNZqgWpiOgAN-16" value="TEXT" style="shape=partialRectangle;connectable=0;fillColor=none;top=0;left=0;bottom=0;right=0;align=left;spacingLeft=6;overflow=hidden;fontStyle=1" parent="L0tOpF2VsNZqgWpiOgAN-5" vertex="1">
          <mxGeometry x="150" width="90" height="32" as="geometry">
            <mxRectangle width="90" height="32" as="alternateBounds" />
          </mxGeometry>
        </mxCell>
        <mxCell id="L0tOpF2VsNZqgWpiOgAN-8" value="" style="shape=tableRow;horizontal=0;startSize=0;swimlaneHead=0;swimlaneBody=0;fillColor=none;collapsible=0;dropTarget=0;points=[[0,0.5],[1,0.5]];portConstraint=eastwest;top=0;left=0;right=0;bottom=0;" parent="L0tOpF2VsNZqgWpiOgAN-1" vertex="1">
          <mxGeometry y="95" width="240" height="33" as="geometry" />
        </mxCell>
        <mxCell id="L0tOpF2VsNZqgWpiOgAN-9" value="" style="shape=partialRectangle;connectable=0;fillColor=none;top=0;left=0;bottom=0;right=0;editable=1;overflow=hidden;" parent="L0tOpF2VsNZqgWpiOgAN-8" vertex="1">
          <mxGeometry width="30" height="33" as="geometry">
            <mxRectangle width="30" height="33" as="alternateBounds" />
          </mxGeometry>
        </mxCell>
        <mxCell id="L0tOpF2VsNZqgWpiOgAN-10" value="surname" style="shape=partialRectangle;connectable=0;fillColor=none;top=0;left=0;bottom=0;right=0;align=left;spacingLeft=6;overflow=hidden;" parent="L0tOpF2VsNZqgWpiOgAN-8" vertex="1">
          <mxGeometry x="30" width="120" height="33" as="geometry">
            <mxRectangle width="120" height="33" as="alternateBounds" />
          </mxGeometry>
        </mxCell>
        <mxCell id="L0tOpF2VsNZqgWpiOgAN-17" value="TEXT" style="shape=partialRectangle;connectable=0;fillColor=none;top=0;left=0;bottom=0;right=0;align=left;spacingLeft=6;overflow=hidden;fontStyle=1" parent="L0tOpF2VsNZqgWpiOgAN-8" vertex="1">
          <mxGeometry x="150" width="90" height="33" as="geometry">
            <mxRectangle width="90" height="33" as="alternateBounds" />
          </mxGeometry>
        </mxCell>
        <mxCell id="L0tOpF2VsNZqgWpiOgAN-11" value="" style="shape=tableRow;horizontal=0;startSize=0;swimlaneHead=0;swimlaneBody=0;fillColor=none;collapsible=0;dropTarget=0;points=[[0,0.5],[1,0.5]];portConstraint=eastwest;top=0;left=0;right=0;bottom=0;" parent="L0tOpF2VsNZqgWpiOgAN-1" vertex="1">
          <mxGeometry y="128" width="240" height="32" as="geometry" />
        </mxCell>
        <mxCell id="L0tOpF2VsNZqgWpiOgAN-12" value="" style="shape=partialRectangle;connectable=0;fillColor=none;top=0;left=0;bottom=0;right=0;editable=1;overflow=hidden;" parent="L0tOpF2VsNZqgWpiOgAN-11" vertex="1">
          <mxGeometry width="30" height="32" as="geometry">
            <mxRectangle width="30" height="32" as="alternateBounds" />
          </mxGeometry>
        </mxCell>
        <mxCell id="L0tOpF2VsNZqgWpiOgAN-13" value="born_date" style="shape=partialRectangle;connectable=0;fillColor=none;top=0;left=0;bottom=0;right=0;align=left;spacingLeft=6;overflow=hidden;" parent="L0tOpF2VsNZqgWpiOgAN-11" vertex="1">
          <mxGeometry x="30" width="120" height="32" as="geometry">
            <mxRectangle width="120" height="32" as="alternateBounds" />
          </mxGeometry>
        </mxCell>
        <mxCell id="L0tOpF2VsNZqgWpiOgAN-18" value="TIMESTAMP" style="shape=partialRectangle;connectable=0;fillColor=none;top=0;left=0;bottom=0;right=0;align=left;spacingLeft=6;overflow=hidden;fontStyle=1" parent="L0tOpF2VsNZqgWpiOgAN-11" vertex="1">
          <mxGeometry x="150" width="90" height="32" as="geometry">
            <mxRectangle width="90" height="32" as="alternateBounds" />
          </mxGeometry>
        </mxCell>
        <mxCell id="L0tOpF2VsNZqgWpiOgAN-19" style="shape=tableRow;horizontal=0;startSize=0;swimlaneHead=0;swimlaneBody=0;fillColor=none;collapsible=0;dropTarget=0;points=[[0,0.5],[1,0.5]];portConstraint=eastwest;top=0;left=0;right=0;bottom=0;" parent="L0tOpF2VsNZqgWpiOgAN-1" vertex="1">
          <mxGeometry y="160" width="240" height="32" as="geometry" />
        </mxCell>
        <mxCell id="L0tOpF2VsNZqgWpiOgAN-20" style="shape=partialRectangle;connectable=0;fillColor=none;top=0;left=0;bottom=0;right=0;editable=1;overflow=hidden;" parent="L0tOpF2VsNZqgWpiOgAN-19" vertex="1">
          <mxGeometry width="30" height="32" as="geometry">
            <mxRectangle width="30" height="32" as="alternateBounds" />
          </mxGeometry>
        </mxCell>
        <mxCell id="L0tOpF2VsNZqgWpiOgAN-21" value="status" style="shape=partialRectangle;connectable=0;fillColor=none;top=0;left=0;bottom=0;right=0;align=left;spacingLeft=6;overflow=hidden;" parent="L0tOpF2VsNZqgWpiOgAN-19" vertex="1">
          <mxGeometry x="30" width="120" height="32" as="geometry">
            <mxRectangle width="120" height="32" as="alternateBounds" />
          </mxGeometry>
        </mxCell>
        <mxCell id="L0tOpF2VsNZqgWpiOgAN-22" value="TEXT" style="shape=partialRectangle;connectable=0;fillColor=none;top=0;left=0;bottom=0;right=0;align=left;spacingLeft=6;overflow=hidden;fontStyle=1" parent="L0tOpF2VsNZqgWpiOgAN-19" vertex="1">
          <mxGeometry x="150" width="90" height="32" as="geometry">
            <mxRectangle width="90" height="32" as="alternateBounds" />
          </mxGeometry>
        </mxCell>
        <mxCell id="mw8yDdY4H_VM8c3TOEiu-1" style="shape=tableRow;horizontal=0;startSize=0;swimlaneHead=0;swimlaneBody=0;fillColor=none;collapsible=0;dropTarget=0;points=[[0,0.5],[1,0.5]];portConstraint=eastwest;top=0;left=0;right=0;bottom=0;" vertex="1" parent="L0tOpF2VsNZqgWpiOgAN-1">
          <mxGeometry y="192" width="240" height="32" as="geometry" />
        </mxCell>
        <mxCell id="mw8yDdY4H_VM8c3TOEiu-2" value="UN1" style="shape=partialRectangle;connectable=0;fillColor=none;top=0;left=0;bottom=0;right=0;editable=1;overflow=hidden;fontStyle=1" vertex="1" parent="mw8yDdY4H_VM8c3TOEiu-1">
          <mxGeometry width="30" height="32" as="geometry">
            <mxRectangle width="30" height="32" as="alternateBounds" />
          </mxGeometry>
        </mxCell>
        <mxCell id="mw8yDdY4H_VM8c3TOEiu-3" value="phone_number" style="shape=partialRectangle;connectable=0;fillColor=none;top=0;left=0;bottom=0;right=0;align=left;spacingLeft=6;overflow=hidden;" vertex="1" parent="mw8yDdY4H_VM8c3TOEiu-1">
          <mxGeometry x="30" width="120" height="32" as="geometry">
            <mxRectangle width="120" height="32" as="alternateBounds" />
          </mxGeometry>
        </mxCell>
        <mxCell id="mw8yDdY4H_VM8c3TOEiu-4" value="INT" style="shape=partialRectangle;connectable=0;fillColor=none;top=0;left=0;bottom=0;right=0;align=left;spacingLeft=6;overflow=hidden;fontStyle=1" vertex="1" parent="mw8yDdY4H_VM8c3TOEiu-1">
          <mxGeometry x="150" width="90" height="32" as="geometry">
            <mxRectangle width="90" height="32" as="alternateBounds" />
          </mxGeometry>
        </mxCell>
        <mxCell id="mw8yDdY4H_VM8c3TOEiu-5" style="shape=tableRow;horizontal=0;startSize=0;swimlaneHead=0;swimlaneBody=0;fillColor=none;collapsible=0;dropTarget=0;points=[[0,0.5],[1,0.5]];portConstraint=eastwest;top=0;left=0;right=0;bottom=0;" vertex="1" parent="L0tOpF2VsNZqgWpiOgAN-1">
          <mxGeometry y="224" width="240" height="32" as="geometry" />
        </mxCell>
        <mxCell id="mw8yDdY4H_VM8c3TOEiu-6" value="UN1" style="shape=partialRectangle;connectable=0;fillColor=none;top=0;left=0;bottom=0;right=0;editable=1;overflow=hidden;fontStyle=1" vertex="1" parent="mw8yDdY4H_VM8c3TOEiu-5">
          <mxGeometry width="30" height="32" as="geometry">
            <mxRectangle width="30" height="32" as="alternateBounds" />
          </mxGeometry>
        </mxCell>
        <mxCell id="mw8yDdY4H_VM8c3TOEiu-7" value="iin" style="shape=partialRectangle;connectable=0;fillColor=none;top=0;left=0;bottom=0;right=0;align=left;spacingLeft=6;overflow=hidden;" vertex="1" parent="mw8yDdY4H_VM8c3TOEiu-5">
          <mxGeometry x="30" width="120" height="32" as="geometry">
            <mxRectangle width="120" height="32" as="alternateBounds" />
          </mxGeometry>
        </mxCell>
        <mxCell id="mw8yDdY4H_VM8c3TOEiu-8" value="INT" style="shape=partialRectangle;connectable=0;fillColor=none;top=0;left=0;bottom=0;right=0;align=left;spacingLeft=6;overflow=hidden;fontStyle=1" vertex="1" parent="mw8yDdY4H_VM8c3TOEiu-5">
          <mxGeometry x="150" width="90" height="32" as="geometry">
            <mxRectangle width="90" height="32" as="alternateBounds" />
          </mxGeometry>
        </mxCell>
        <mxCell id="mw8yDdY4H_VM8c3TOEiu-9" style="shape=tableRow;horizontal=0;startSize=0;swimlaneHead=0;swimlaneBody=0;fillColor=none;collapsible=0;dropTarget=0;points=[[0,0.5],[1,0.5]];portConstraint=eastwest;top=0;left=0;right=0;bottom=0;" vertex="1" parent="L0tOpF2VsNZqgWpiOgAN-1">
          <mxGeometry y="256" width="240" height="32" as="geometry" />
        </mxCell>
        <mxCell id="mw8yDdY4H_VM8c3TOEiu-10" style="shape=partialRectangle;connectable=0;fillColor=none;top=0;left=0;bottom=0;right=0;editable=1;overflow=hidden;fontStyle=1" vertex="1" parent="mw8yDdY4H_VM8c3TOEiu-9">
          <mxGeometry width="30" height="32" as="geometry">
            <mxRectangle width="30" height="32" as="alternateBounds" />
          </mxGeometry>
        </mxCell>
        <mxCell id="mw8yDdY4H_VM8c3TOEiu-11" value="gender" style="shape=partialRectangle;connectable=0;fillColor=none;top=0;left=0;bottom=0;right=0;align=left;spacingLeft=6;overflow=hidden;" vertex="1" parent="mw8yDdY4H_VM8c3TOEiu-9">
          <mxGeometry x="30" width="120" height="32" as="geometry">
            <mxRectangle width="120" height="32" as="alternateBounds" />
          </mxGeometry>
        </mxCell>
        <mxCell id="mw8yDdY4H_VM8c3TOEiu-12" value="TEXT" style="shape=partialRectangle;connectable=0;fillColor=none;top=0;left=0;bottom=0;right=0;align=left;spacingLeft=6;overflow=hidden;fontStyle=1" vertex="1" parent="mw8yDdY4H_VM8c3TOEiu-9">
          <mxGeometry x="150" width="90" height="32" as="geometry">
            <mxRectangle width="90" height="32" as="alternateBounds" />
          </mxGeometry>
        </mxCell>
        <mxCell id="mw8yDdY4H_VM8c3TOEiu-17" style="shape=tableRow;horizontal=0;startSize=0;swimlaneHead=0;swimlaneBody=0;fillColor=none;collapsible=0;dropTarget=0;points=[[0,0.5],[1,0.5]];portConstraint=eastwest;top=0;left=0;right=0;bottom=0;" vertex="1" parent="L0tOpF2VsNZqgWpiOgAN-1">
          <mxGeometry y="288" width="240" height="32" as="geometry" />
        </mxCell>
        <mxCell id="mw8yDdY4H_VM8c3TOEiu-18" style="shape=partialRectangle;connectable=0;fillColor=none;top=0;left=0;bottom=0;right=0;editable=1;overflow=hidden;fontStyle=1" vertex="1" parent="mw8yDdY4H_VM8c3TOEiu-17">
          <mxGeometry width="30" height="32" as="geometry">
            <mxRectangle width="30" height="32" as="alternateBounds" />
          </mxGeometry>
        </mxCell>
        <mxCell id="mw8yDdY4H_VM8c3TOEiu-19" value="adress" style="shape=partialRectangle;connectable=0;fillColor=none;top=0;left=0;bottom=0;right=0;align=left;spacingLeft=6;overflow=hidden;" vertex="1" parent="mw8yDdY4H_VM8c3TOEiu-17">
          <mxGeometry x="30" width="120" height="32" as="geometry">
            <mxRectangle width="120" height="32" as="alternateBounds" />
          </mxGeometry>
        </mxCell>
        <mxCell id="mw8yDdY4H_VM8c3TOEiu-20" value="TEXT" style="shape=partialRectangle;connectable=0;fillColor=none;top=0;left=0;bottom=0;right=0;align=left;spacingLeft=6;overflow=hidden;fontStyle=1" vertex="1" parent="mw8yDdY4H_VM8c3TOEiu-17">
          <mxGeometry x="150" width="90" height="32" as="geometry">
            <mxRectangle width="90" height="32" as="alternateBounds" />
          </mxGeometry>
        </mxCell>
        <mxCell id="mw8yDdY4H_VM8c3TOEiu-13" style="shape=tableRow;horizontal=0;startSize=0;swimlaneHead=0;swimlaneBody=0;fillColor=none;collapsible=0;dropTarget=0;points=[[0,0.5],[1,0.5]];portConstraint=eastwest;top=0;left=0;right=0;bottom=0;" vertex="1" parent="L0tOpF2VsNZqgWpiOgAN-1">
          <mxGeometry y="320" width="240" height="32" as="geometry" />
        </mxCell>
        <mxCell id="mw8yDdY4H_VM8c3TOEiu-14" style="shape=partialRectangle;connectable=0;fillColor=none;top=0;left=0;bottom=0;right=0;editable=1;overflow=hidden;fontStyle=1" vertex="1" parent="mw8yDdY4H_VM8c3TOEiu-13">
          <mxGeometry width="30" height="32" as="geometry">
            <mxRectangle width="30" height="32" as="alternateBounds" />
          </mxGeometry>
        </mxCell>
        <mxCell id="mw8yDdY4H_VM8c3TOEiu-15" value="created_at" style="shape=partialRectangle;connectable=0;fillColor=none;top=0;left=0;bottom=0;right=0;align=left;spacingLeft=6;overflow=hidden;" vertex="1" parent="mw8yDdY4H_VM8c3TOEiu-13">
          <mxGeometry x="30" width="120" height="32" as="geometry">
            <mxRectangle width="120" height="32" as="alternateBounds" />
          </mxGeometry>
        </mxCell>
        <mxCell id="mw8yDdY4H_VM8c3TOEiu-16" value="TIMESTAMP" style="shape=partialRectangle;connectable=0;fillColor=none;top=0;left=0;bottom=0;right=0;align=left;spacingLeft=6;overflow=hidden;fontStyle=1" vertex="1" parent="mw8yDdY4H_VM8c3TOEiu-13">
          <mxGeometry x="150" width="90" height="32" as="geometry">
            <mxRectangle width="90" height="32" as="alternateBounds" />
          </mxGeometry>
        </mxCell>
        <mxCell id="mw8yDdY4H_VM8c3TOEiu-21" value="" style="edgeStyle=elbowEdgeStyle;fontSize=12;html=1;endArrow=ERzeroToMany;startArrow=ERmandOne;rounded=0;entryX=0;entryY=0.5;entryDx=0;entryDy=0;exitX=1;exitY=0.5;exitDx=0;exitDy=0;endFill=0;endSize=15;jumpSize=15;startSize=15;" edge="1" parent="1" source="L0tOpF2VsNZqgWpiOgAN-2" target="mw8yDdY4H_VM8c3TOEiu-27">
          <mxGeometry width="100" height="100" relative="1" as="geometry">
            <mxPoint x="600" y="290" as="sourcePoint" />
            <mxPoint x="1190" y="158.9999999999999" as="targetPoint" />
          </mxGeometry>
        </mxCell>
        <mxCell id="mw8yDdY4H_VM8c3TOEiu-22" value="real_estate" style="shape=table;startSize=30;container=1;collapsible=1;childLayout=tableLayout;fixedRows=2;rowLines=0;fontStyle=1;align=center;resizeLast=1;fillColor=#f5f5f5;strokeColor=#666666;rounded=1;gradientColor=#b3b3b3;" vertex="1" parent="1">
          <mxGeometry x="1200" y="210" width="240" height="191" as="geometry" />
        </mxCell>
        <mxCell id="mw8yDdY4H_VM8c3TOEiu-23" value="" style="shape=tableRow;horizontal=0;startSize=0;swimlaneHead=0;swimlaneBody=0;fillColor=none;collapsible=0;dropTarget=0;points=[[0,0.5],[1,0.5]];portConstraint=eastwest;top=0;left=0;right=0;bottom=1;" vertex="1" parent="mw8yDdY4H_VM8c3TOEiu-22">
          <mxGeometry y="30" width="240" height="33" as="geometry" />
        </mxCell>
        <mxCell id="mw8yDdY4H_VM8c3TOEiu-24" value="PK" style="shape=partialRectangle;connectable=0;fillColor=none;top=0;left=0;bottom=0;right=0;fontStyle=1;overflow=hidden;" vertex="1" parent="mw8yDdY4H_VM8c3TOEiu-23">
          <mxGeometry width="30" height="33" as="geometry">
            <mxRectangle width="30" height="33" as="alternateBounds" />
          </mxGeometry>
        </mxCell>
        <mxCell id="mw8yDdY4H_VM8c3TOEiu-25" value="id" style="shape=partialRectangle;connectable=0;fillColor=none;top=0;left=0;bottom=0;right=0;align=left;spacingLeft=6;fontStyle=5;overflow=hidden;" vertex="1" parent="mw8yDdY4H_VM8c3TOEiu-23">
          <mxGeometry x="30" width="120" height="33" as="geometry">
            <mxRectangle width="120" height="33" as="alternateBounds" />
          </mxGeometry>
        </mxCell>
        <mxCell id="mw8yDdY4H_VM8c3TOEiu-26" value="INT" style="shape=partialRectangle;connectable=0;fillColor=none;top=0;left=0;bottom=0;right=0;align=left;spacingLeft=6;fontStyle=5;overflow=hidden;" vertex="1" parent="mw8yDdY4H_VM8c3TOEiu-23">
          <mxGeometry x="150" width="90" height="33" as="geometry">
            <mxRectangle width="90" height="33" as="alternateBounds" />
          </mxGeometry>
        </mxCell>
        <mxCell id="mw8yDdY4H_VM8c3TOEiu-27" value="" style="shape=tableRow;horizontal=0;startSize=0;swimlaneHead=0;swimlaneBody=0;fillColor=none;collapsible=0;dropTarget=0;points=[[0,0.5],[1,0.5]];portConstraint=eastwest;top=0;left=0;right=0;bottom=0;" vertex="1" parent="mw8yDdY4H_VM8c3TOEiu-22">
          <mxGeometry y="63" width="240" height="32" as="geometry" />
        </mxCell>
        <mxCell id="mw8yDdY4H_VM8c3TOEiu-28" value="FK" style="shape=partialRectangle;connectable=0;fillColor=none;top=0;left=0;bottom=0;right=0;editable=1;overflow=hidden;fontStyle=1" vertex="1" parent="mw8yDdY4H_VM8c3TOEiu-27">
          <mxGeometry width="30" height="32" as="geometry">
            <mxRectangle width="30" height="32" as="alternateBounds" />
          </mxGeometry>
        </mxCell>
        <mxCell id="mw8yDdY4H_VM8c3TOEiu-29" value="user_profile" style="shape=partialRectangle;connectable=0;fillColor=none;top=0;left=0;bottom=0;right=0;align=left;spacingLeft=6;overflow=hidden;" vertex="1" parent="mw8yDdY4H_VM8c3TOEiu-27">
          <mxGeometry x="30" width="120" height="32" as="geometry">
            <mxRectangle width="120" height="32" as="alternateBounds" />
          </mxGeometry>
        </mxCell>
        <mxCell id="mw8yDdY4H_VM8c3TOEiu-30" value="INT" style="shape=partialRectangle;connectable=0;fillColor=none;top=0;left=0;bottom=0;right=0;align=left;spacingLeft=6;overflow=hidden;fontStyle=1" vertex="1" parent="mw8yDdY4H_VM8c3TOEiu-27">
          <mxGeometry x="150" width="90" height="32" as="geometry">
            <mxRectangle width="90" height="32" as="alternateBounds" />
          </mxGeometry>
        </mxCell>
        <mxCell id="mw8yDdY4H_VM8c3TOEiu-39" style="shape=tableRow;horizontal=0;startSize=0;swimlaneHead=0;swimlaneBody=0;fillColor=none;collapsible=0;dropTarget=0;points=[[0,0.5],[1,0.5]];portConstraint=eastwest;top=0;left=0;right=0;bottom=0;" vertex="1" parent="mw8yDdY4H_VM8c3TOEiu-22">
          <mxGeometry y="95" width="240" height="32" as="geometry" />
        </mxCell>
        <mxCell id="mw8yDdY4H_VM8c3TOEiu-40" style="shape=partialRectangle;connectable=0;fillColor=none;top=0;left=0;bottom=0;right=0;editable=1;overflow=hidden;fontStyle=1" vertex="1" parent="mw8yDdY4H_VM8c3TOEiu-39">
          <mxGeometry width="30" height="32" as="geometry">
            <mxRectangle width="30" height="32" as="alternateBounds" />
          </mxGeometry>
        </mxCell>
        <mxCell id="mw8yDdY4H_VM8c3TOEiu-41" value="address" style="shape=partialRectangle;connectable=0;fillColor=none;top=0;left=0;bottom=0;right=0;align=left;spacingLeft=6;overflow=hidden;" vertex="1" parent="mw8yDdY4H_VM8c3TOEiu-39">
          <mxGeometry x="30" width="120" height="32" as="geometry">
            <mxRectangle width="120" height="32" as="alternateBounds" />
          </mxGeometry>
        </mxCell>
        <mxCell id="mw8yDdY4H_VM8c3TOEiu-42" value="TEXT" style="shape=partialRectangle;connectable=0;fillColor=none;top=0;left=0;bottom=0;right=0;align=left;spacingLeft=6;overflow=hidden;fontStyle=1" vertex="1" parent="mw8yDdY4H_VM8c3TOEiu-39">
          <mxGeometry x="150" width="90" height="32" as="geometry">
            <mxRectangle width="90" height="32" as="alternateBounds" />
          </mxGeometry>
        </mxCell>
        <mxCell id="mw8yDdY4H_VM8c3TOEiu-43" style="shape=tableRow;horizontal=0;startSize=0;swimlaneHead=0;swimlaneBody=0;fillColor=none;collapsible=0;dropTarget=0;points=[[0,0.5],[1,0.5]];portConstraint=eastwest;top=0;left=0;right=0;bottom=0;" vertex="1" parent="mw8yDdY4H_VM8c3TOEiu-22">
          <mxGeometry y="127" width="240" height="32" as="geometry" />
        </mxCell>
        <mxCell id="mw8yDdY4H_VM8c3TOEiu-44" value="UN1" style="shape=partialRectangle;connectable=0;fillColor=none;top=0;left=0;bottom=0;right=0;editable=1;overflow=hidden;fontStyle=1" vertex="1" parent="mw8yDdY4H_VM8c3TOEiu-43">
          <mxGeometry width="30" height="32" as="geometry">
            <mxRectangle width="30" height="32" as="alternateBounds" />
          </mxGeometry>
        </mxCell>
        <mxCell id="mw8yDdY4H_VM8c3TOEiu-45" value="qr_code" style="shape=partialRectangle;connectable=0;fillColor=none;top=0;left=0;bottom=0;right=0;align=left;spacingLeft=6;overflow=hidden;" vertex="1" parent="mw8yDdY4H_VM8c3TOEiu-43">
          <mxGeometry x="30" width="120" height="32" as="geometry">
            <mxRectangle width="120" height="32" as="alternateBounds" />
          </mxGeometry>
        </mxCell>
        <mxCell id="mw8yDdY4H_VM8c3TOEiu-46" value="TEXT" style="shape=partialRectangle;connectable=0;fillColor=none;top=0;left=0;bottom=0;right=0;align=left;spacingLeft=6;overflow=hidden;fontStyle=1" vertex="1" parent="mw8yDdY4H_VM8c3TOEiu-43">
          <mxGeometry x="150" width="90" height="32" as="geometry">
            <mxRectangle width="90" height="32" as="alternateBounds" />
          </mxGeometry>
        </mxCell>
        <mxCell id="mw8yDdY4H_VM8c3TOEiu-31" style="shape=tableRow;horizontal=0;startSize=0;swimlaneHead=0;swimlaneBody=0;fillColor=none;collapsible=0;dropTarget=0;points=[[0,0.5],[1,0.5]];portConstraint=eastwest;top=0;left=0;right=0;bottom=0;" vertex="1" parent="mw8yDdY4H_VM8c3TOEiu-22">
          <mxGeometry y="159" width="240" height="32" as="geometry" />
        </mxCell>
        <mxCell id="mw8yDdY4H_VM8c3TOEiu-32" style="shape=partialRectangle;connectable=0;fillColor=none;top=0;left=0;bottom=0;right=0;editable=1;overflow=hidden;" vertex="1" parent="mw8yDdY4H_VM8c3TOEiu-31">
          <mxGeometry width="30" height="32" as="geometry">
            <mxRectangle width="30" height="32" as="alternateBounds" />
          </mxGeometry>
        </mxCell>
        <mxCell id="mw8yDdY4H_VM8c3TOEiu-33" value="created_at" style="shape=partialRectangle;connectable=0;fillColor=none;top=0;left=0;bottom=0;right=0;align=left;spacingLeft=6;overflow=hidden;" vertex="1" parent="mw8yDdY4H_VM8c3TOEiu-31">
          <mxGeometry x="30" width="120" height="32" as="geometry">
            <mxRectangle width="120" height="32" as="alternateBounds" />
          </mxGeometry>
        </mxCell>
        <mxCell id="mw8yDdY4H_VM8c3TOEiu-34" value="TIMESTAMP" style="shape=partialRectangle;connectable=0;fillColor=none;top=0;left=0;bottom=0;right=0;align=left;spacingLeft=6;overflow=hidden;fontStyle=1" vertex="1" parent="mw8yDdY4H_VM8c3TOEiu-31">
          <mxGeometry x="150" width="90" height="32" as="geometry">
            <mxRectangle width="90" height="32" as="alternateBounds" />
          </mxGeometry>
        </mxCell>
        <mxCell id="mw8yDdY4H_VM8c3TOEiu-50" value="visit" style="shape=table;startSize=30;container=1;collapsible=1;childLayout=tableLayout;fixedRows=2;rowLines=0;fontStyle=1;align=center;resizeLast=1;fillColor=#f5f5f5;strokeColor=#666666;rounded=1;gradientColor=#b3b3b3;" vertex="1" parent="1">
          <mxGeometry x="900" y="600" width="240" height="159" as="geometry" />
        </mxCell>
        <mxCell id="mw8yDdY4H_VM8c3TOEiu-51" value="" style="shape=tableRow;horizontal=0;startSize=0;swimlaneHead=0;swimlaneBody=0;fillColor=none;collapsible=0;dropTarget=0;points=[[0,0.5],[1,0.5]];portConstraint=eastwest;top=0;left=0;right=0;bottom=1;" vertex="1" parent="mw8yDdY4H_VM8c3TOEiu-50">
          <mxGeometry y="30" width="240" height="33" as="geometry" />
        </mxCell>
        <mxCell id="mw8yDdY4H_VM8c3TOEiu-52" value="PK" style="shape=partialRectangle;connectable=0;fillColor=none;top=0;left=0;bottom=0;right=0;fontStyle=1;overflow=hidden;" vertex="1" parent="mw8yDdY4H_VM8c3TOEiu-51">
          <mxGeometry width="30" height="33" as="geometry">
            <mxRectangle width="30" height="33" as="alternateBounds" />
          </mxGeometry>
        </mxCell>
        <mxCell id="mw8yDdY4H_VM8c3TOEiu-53" value="id" style="shape=partialRectangle;connectable=0;fillColor=none;top=0;left=0;bottom=0;right=0;align=left;spacingLeft=6;fontStyle=5;overflow=hidden;" vertex="1" parent="mw8yDdY4H_VM8c3TOEiu-51">
          <mxGeometry x="30" width="120" height="33" as="geometry">
            <mxRectangle width="120" height="33" as="alternateBounds" />
          </mxGeometry>
        </mxCell>
        <mxCell id="mw8yDdY4H_VM8c3TOEiu-54" value="INT" style="shape=partialRectangle;connectable=0;fillColor=none;top=0;left=0;bottom=0;right=0;align=left;spacingLeft=6;fontStyle=5;overflow=hidden;" vertex="1" parent="mw8yDdY4H_VM8c3TOEiu-51">
          <mxGeometry x="150" width="90" height="33" as="geometry">
            <mxRectangle width="90" height="33" as="alternateBounds" />
          </mxGeometry>
        </mxCell>
        <mxCell id="mw8yDdY4H_VM8c3TOEiu-55" value="" style="shape=tableRow;horizontal=0;startSize=0;swimlaneHead=0;swimlaneBody=0;fillColor=none;collapsible=0;dropTarget=0;points=[[0,0.5],[1,0.5]];portConstraint=eastwest;top=0;left=0;right=0;bottom=0;" vertex="1" parent="mw8yDdY4H_VM8c3TOEiu-50">
          <mxGeometry y="63" width="240" height="32" as="geometry" />
        </mxCell>
        <mxCell id="mw8yDdY4H_VM8c3TOEiu-56" value="FK" style="shape=partialRectangle;connectable=0;fillColor=none;top=0;left=0;bottom=0;right=0;editable=1;overflow=hidden;fontStyle=1" vertex="1" parent="mw8yDdY4H_VM8c3TOEiu-55">
          <mxGeometry width="30" height="32" as="geometry">
            <mxRectangle width="30" height="32" as="alternateBounds" />
          </mxGeometry>
        </mxCell>
        <mxCell id="mw8yDdY4H_VM8c3TOEiu-57" value="real_estate_id" style="shape=partialRectangle;connectable=0;fillColor=none;top=0;left=0;bottom=0;right=0;align=left;spacingLeft=6;overflow=hidden;" vertex="1" parent="mw8yDdY4H_VM8c3TOEiu-55">
          <mxGeometry x="30" width="120" height="32" as="geometry">
            <mxRectangle width="120" height="32" as="alternateBounds" />
          </mxGeometry>
        </mxCell>
        <mxCell id="mw8yDdY4H_VM8c3TOEiu-58" value="INT" style="shape=partialRectangle;connectable=0;fillColor=none;top=0;left=0;bottom=0;right=0;align=left;spacingLeft=6;overflow=hidden;fontStyle=1" vertex="1" parent="mw8yDdY4H_VM8c3TOEiu-55">
          <mxGeometry x="150" width="90" height="32" as="geometry">
            <mxRectangle width="90" height="32" as="alternateBounds" />
          </mxGeometry>
        </mxCell>
        <mxCell id="mw8yDdY4H_VM8c3TOEiu-59" style="shape=tableRow;horizontal=0;startSize=0;swimlaneHead=0;swimlaneBody=0;fillColor=none;collapsible=0;dropTarget=0;points=[[0,0.5],[1,0.5]];portConstraint=eastwest;top=0;left=0;right=0;bottom=0;" vertex="1" parent="mw8yDdY4H_VM8c3TOEiu-50">
          <mxGeometry y="95" width="240" height="32" as="geometry" />
        </mxCell>
        <mxCell id="mw8yDdY4H_VM8c3TOEiu-60" value="FK" style="shape=partialRectangle;connectable=0;fillColor=none;top=0;left=0;bottom=0;right=0;editable=1;overflow=hidden;fontStyle=1" vertex="1" parent="mw8yDdY4H_VM8c3TOEiu-59">
          <mxGeometry width="30" height="32" as="geometry">
            <mxRectangle width="30" height="32" as="alternateBounds" />
          </mxGeometry>
        </mxCell>
        <mxCell id="mw8yDdY4H_VM8c3TOEiu-61" value="user_profile_id" style="shape=partialRectangle;connectable=0;fillColor=none;top=0;left=0;bottom=0;right=0;align=left;spacingLeft=6;overflow=hidden;" vertex="1" parent="mw8yDdY4H_VM8c3TOEiu-59">
          <mxGeometry x="30" width="120" height="32" as="geometry">
            <mxRectangle width="120" height="32" as="alternateBounds" />
          </mxGeometry>
        </mxCell>
        <mxCell id="mw8yDdY4H_VM8c3TOEiu-62" value="TEXT" style="shape=partialRectangle;connectable=0;fillColor=none;top=0;left=0;bottom=0;right=0;align=left;spacingLeft=6;overflow=hidden;fontStyle=1" vertex="1" parent="mw8yDdY4H_VM8c3TOEiu-59">
          <mxGeometry x="150" width="90" height="32" as="geometry">
            <mxRectangle width="90" height="32" as="alternateBounds" />
          </mxGeometry>
        </mxCell>
        <mxCell id="mw8yDdY4H_VM8c3TOEiu-67" style="shape=tableRow;horizontal=0;startSize=0;swimlaneHead=0;swimlaneBody=0;fillColor=none;collapsible=0;dropTarget=0;points=[[0,0.5],[1,0.5]];portConstraint=eastwest;top=0;left=0;right=0;bottom=0;" vertex="1" parent="mw8yDdY4H_VM8c3TOEiu-50">
          <mxGeometry y="127" width="240" height="32" as="geometry" />
        </mxCell>
        <mxCell id="mw8yDdY4H_VM8c3TOEiu-68" style="shape=partialRectangle;connectable=0;fillColor=none;top=0;left=0;bottom=0;right=0;editable=1;overflow=hidden;" vertex="1" parent="mw8yDdY4H_VM8c3TOEiu-67">
          <mxGeometry width="30" height="32" as="geometry">
            <mxRectangle width="30" height="32" as="alternateBounds" />
          </mxGeometry>
        </mxCell>
        <mxCell id="mw8yDdY4H_VM8c3TOEiu-69" value="created_at" style="shape=partialRectangle;connectable=0;fillColor=none;top=0;left=0;bottom=0;right=0;align=left;spacingLeft=6;overflow=hidden;" vertex="1" parent="mw8yDdY4H_VM8c3TOEiu-67">
          <mxGeometry x="30" width="120" height="32" as="geometry">
            <mxRectangle width="120" height="32" as="alternateBounds" />
          </mxGeometry>
        </mxCell>
        <mxCell id="mw8yDdY4H_VM8c3TOEiu-70" value="TIMESTAMP" style="shape=partialRectangle;connectable=0;fillColor=none;top=0;left=0;bottom=0;right=0;align=left;spacingLeft=6;overflow=hidden;fontStyle=1" vertex="1" parent="mw8yDdY4H_VM8c3TOEiu-67">
          <mxGeometry x="150" width="90" height="32" as="geometry">
            <mxRectangle width="90" height="32" as="alternateBounds" />
          </mxGeometry>
        </mxCell>
        <mxCell id="mw8yDdY4H_VM8c3TOEiu-71" value="" style="edgeStyle=elbowEdgeStyle;fontSize=12;html=1;endArrow=ERmandOne;endFill=0;startArrow=ERzeroToMany;rounded=0;startSize=15;endSize=15;strokeWidth=1;jumpSize=15;exitX=1;exitY=0.5;exitDx=0;exitDy=0;entryX=0.625;entryY=1.035;entryDx=0;entryDy=0;entryPerimeter=0;" edge="1" parent="1" source="mw8yDdY4H_VM8c3TOEiu-55" target="mw8yDdY4H_VM8c3TOEiu-31">
          <mxGeometry width="100" height="100" relative="1" as="geometry">
            <mxPoint x="1260" y="620" as="sourcePoint" />
            <mxPoint x="1360" y="430" as="targetPoint" />
            <Array as="points">
              <mxPoint x="1350" y="430" />
              <mxPoint x="1320" y="420" />
            </Array>
          </mxGeometry>
        </mxCell>
        <mxCell id="mw8yDdY4H_VM8c3TOEiu-72" value="" style="edgeStyle=elbowEdgeStyle;fontSize=12;html=1;endArrow=ERzeroToMany;endFill=0;startArrow=ERmandOne;rounded=0;startSize=15;endSize=15;strokeWidth=1;jumpSize=15;exitX=0.486;exitY=1.062;exitDx=0;exitDy=0;entryX=0;entryY=0.5;entryDx=0;entryDy=0;exitPerimeter=0;startFill=0;" edge="1" parent="1" source="mw8yDdY4H_VM8c3TOEiu-13" target="mw8yDdY4H_VM8c3TOEiu-59">
          <mxGeometry width="100" height="100" relative="1" as="geometry">
            <mxPoint x="280" y="786.8800000000002" as="sourcePoint" />
            <mxPoint x="490" y="509.9999999999999" as="targetPoint" />
            <Array as="points">
              <mxPoint x="707" y="570" />
              <mxPoint x="700" y="600" />
              <mxPoint x="690" y="600" />
              <mxPoint x="680" y="620" />
              <mxPoint x="490" y="537.88" />
              <mxPoint x="460" y="527.88" />
            </Array>
          </mxGeometry>
        </mxCell>
      </root>
    </mxGraphModel>
  </diagram>
</mxfile>
